<svg width="24" height="25" viewBox="0 0 24 25" fill="none" xmlns="http://www.w3.org/2000/svg">
<path d="M19.1462 9.64647C19.1462 9.49433 19.1163 9.34368 19.058 9.20312C18.9998 9.06256 18.9145 8.93485 18.8069 8.82727C18.6993 8.71969 18.5716 8.63436 18.431 8.57613C18.2905 8.51791 18.1398 8.48795 17.9877 8.48795C17.8356 8.48795 17.6849 8.51791 17.5444 8.57613C17.4038 8.63436 17.2761 8.71969 17.1685 8.82727C17.0609 8.93485 16.9756 9.06256 16.9174 9.20312C16.8591 9.34368 16.8292 9.49433 16.8292 9.64647H19.1462ZM6.17082 9.64647C6.17082 9.33921 6.04876 9.04454 5.8315 8.82727C5.61423 8.61001 5.31956 8.48795 5.0123 8.48795C4.70504 8.48795 4.41037 8.61001 4.1931 8.82727C3.97584 9.04454 3.85378 9.33921 3.85378 9.64647H6.17082ZM19.022 12.3194C19.2393 12.5367 19.534 12.6588 19.8413 12.6588C20.1486 12.6588 20.4433 12.5367 20.6606 12.3194C20.8779 12.1021 21 11.8074 21 11.5001C21 11.1928 20.8779 10.8981 20.6606 10.6808L19.022 12.3194ZM11.5 3.15874L12.3193 2.33943C12.2117 2.23182 12.084 2.14646 11.9434 2.08822C11.8028 2.02998 11.6522 2 11.5 2C11.3478 2 11.1972 2.02998 11.0566 2.08822C10.916 2.14646 10.7883 2.23182 10.6807 2.33943L11.5 3.15874ZM2.33937 10.6808C2.12207 10.8981 2 11.1928 2 11.5001C2 11.8074 2.12207 12.1021 2.33937 12.3194C2.55666 12.5367 2.85137 12.6588 3.15867 12.6588C3.46597 12.6588 3.76068 12.5367 3.97797 12.3194L2.33937 10.6808ZM6.86593 21H16.1341V18.683H6.86593V21ZM19.1462 17.9878V9.64647H16.8292V17.9878H19.1462ZM6.17082 17.9878V9.64647H3.85378V17.9878H6.17082ZM20.6606 10.6808L12.3193 2.33943L10.6807 3.97805L19.022 12.3194L20.6606 10.6808ZM10.6807 2.33943L2.33937 10.6808L3.97797 12.3194L12.3193 3.97805L10.6807 2.33943ZM16.1341 21C16.9329 21 17.6991 20.6826 18.264 20.1178C18.8289 19.5529 19.1462 18.7867 19.1462 17.9878H16.8292C16.8292 18.1722 16.7559 18.349 16.6256 18.4794C16.4952 18.6097 16.3184 18.683 16.1341 18.683V21ZM6.86593 18.683C6.68157 18.683 6.50477 18.6097 6.37441 18.4794C6.24405 18.349 6.17082 18.1722 6.17082 17.9878H3.85378C3.85378 18.7867 4.17113 19.5529 4.73602 20.1178C5.30091 20.6826 6.06706 21 6.86593 21V18.683Z" fill="#2B86D7"/>
</svg>
