<svg width="24" height="25" viewBox="0 0 24 25" fill="none" xmlns="http://www.w3.org/2000/svg">
<path d="M19.0712 13.642L13.4142 19.3C13.0391 19.675 12.5305 19.8856 12.0002 19.8856C11.4699 19.8856 10.9613 19.675 10.5862 19.3L4.9292 13.643C4.46157 13.1795 4.09011 12.6281 3.83613 12.0206C3.58216 11.4131 3.45067 10.7614 3.44923 10.103C3.44779 9.44454 3.57642 8.79229 3.82773 8.18368C4.07904 7.57508 4.44809 7.0221 4.91368 6.55651C5.37928 6.09091 5.93225 5.72186 6.54086 5.47055C7.14947 5.21924 7.80172 5.09061 8.46017 5.09205C9.11862 5.09349 9.7703 5.22498 10.3778 5.47895C10.9853 5.73293 11.5367 6.10439 12.0002 6.57202C12.9418 5.6539 14.2071 5.14369 15.5222 5.15193C16.8373 5.16017 18.0962 5.68619 19.0262 6.61605C19.9562 7.5459 20.4824 8.80472 20.4908 10.1198C20.4992 11.4349 19.9892 12.7003 19.0712 13.642Z" stroke="#2B86D7" stroke-width="2.5" stroke-linecap="round" stroke-linejoin="round"/>
</svg>
