<svg width="29" height="25" viewBox="0 0 29 25" fill="none" xmlns="http://www.w3.org/2000/svg">
<g clip-path="url(#clip0_1_1259)">
<path d="M26.3681 4.97914C26.2569 4.81852 26.1085 4.68723 25.9355 4.59653C25.7626 4.50583 25.5702 4.45841 25.3748 4.45835H8.86055L7.46613 1.11126C7.28383 0.67011 6.97436 0.293194 6.57713 0.0285156C6.1799 -0.236163 5.71288 -0.376626 5.23555 -0.374986H2.4165V2.04168H5.23555L10.9679 15.7986C11.0597 16.0187 11.2146 16.2067 11.4131 16.3389C11.6115 16.4711 11.8447 16.5417 12.0832 16.5417H21.7498C22.2537 16.5417 22.7044 16.2287 22.882 15.7587L26.507 6.09201C26.5756 5.9091 26.5987 5.7123 26.5745 5.51848C26.5503 5.32466 26.4795 5.13959 26.3681 4.97914ZM20.9125 14.125H12.8891L9.86829 6.87501H23.6312L20.9125 14.125Z" fill="#2B86D7"/>
<path d="M12.6875 21.375C13.6885 21.375 14.5 20.5635 14.5 19.5625C14.5 18.5615 13.6885 17.75 12.6875 17.75C11.6865 17.75 10.875 18.5615 10.875 19.5625C10.875 20.5635 11.6865 21.375 12.6875 21.375Z" fill="#2B86D7"/>
<path d="M21.146 21.375C22.147 21.375 22.9585 20.5635 22.9585 19.5625C22.9585 18.5615 22.147 17.75 21.146 17.75C20.145 17.75 19.3335 18.5615 19.3335 19.5625C19.3335 20.5635 20.145 21.375 21.146 21.375Z" fill="#2B86D7"/>
</g>
<defs>
<clipPath id="clip0_1_1259">
<rect width="29" height="25" fill="white"/>
</clipPath>
</defs>
</svg>
