<svg width="19" height="19" viewBox="0 0 19 19" fill="none" xmlns="http://www.w3.org/2000/svg">
<path d="M11.2295 12.8875C9.79262 13.9091 8.02433 14.3536 6.27512 14.1329C4.52591 13.9122 2.92345 13.0424 1.78531 11.6959C0.647178 10.3494 0.0564426 8.62445 0.130181 6.86292C0.203919 5.10138 0.936749 3.43183 2.18343 2.18514C3.43012 0.938458 5.09967 0.205628 6.86121 0.13189C8.62274 0.0581516 10.3477 0.648887 11.6942 1.78702C13.0407 2.92515 13.9105 4.52762 14.1312 6.27683C14.3519 8.02604 13.9074 9.79433 12.8858 11.2313L18.5311 16.875C18.6462 16.9823 18.7386 17.1117 18.8026 17.2554C18.8667 17.3992 18.9011 17.5543 18.9039 17.7117C18.9067 17.869 18.8777 18.0253 18.8188 18.1713C18.7599 18.3172 18.6721 18.4497 18.5609 18.561C18.4496 18.6723 18.317 18.76 18.1711 18.8189C18.0252 18.8779 17.8689 18.9068 17.7115 18.9041C17.5542 18.9013 17.399 18.8668 17.2553 18.8028C17.1115 18.7387 16.9821 18.6464 16.8749 18.5313L11.2295 12.8875ZM11.8436 7.15626C11.8436 5.91305 11.3497 4.72077 10.4707 3.84169C9.59159 2.96262 8.39931 2.46875 7.15611 2.46875C5.91291 2.46875 4.72062 2.96262 3.84155 3.84169C2.96247 4.72077 2.46861 5.91305 2.46861 7.15626C2.46861 8.39946 2.96247 9.59174 3.84155 10.4708C4.72062 11.3499 5.91291 11.8438 7.15611 11.8438C8.39931 11.8438 9.59159 11.3499 10.4707 10.4708C11.3497 9.59174 11.8436 8.39946 11.8436 7.15626Z" fill="#2B86D7"/>
</svg>
