<svg width="22" height="22" viewBox="0 0 22 22" fill="none" xmlns="http://www.w3.org/2000/svg">
<path fill-rule="evenodd" clip-rule="evenodd" d="M5.30567 12.8516C5.34531 12.8638 5.38574 12.8733 5.42667 12.88C5.68602 13.4911 5.94391 14.1028 6.20034 14.7152C6.66142 15.817 7.12617 16.9518 7.22792 17.2782C7.35534 17.6797 7.48917 17.9528 7.63584 18.1398C7.71192 18.2352 7.799 18.3195 7.90167 18.3837C7.95558 18.4163 8.01271 18.4434 8.07217 18.4643C8.3655 18.5743 8.63317 18.5285 8.80092 18.4726C8.89941 18.4391 8.9931 18.3929 9.07959 18.3351L9.08417 18.3332L11.6747 16.7181L14.6676 19.0116C14.7116 19.0452 14.7593 19.0736 14.8106 19.0968C15.1699 19.2527 15.5183 19.3077 15.8464 19.2637C16.1728 19.2178 16.4322 19.0812 16.6256 18.9263C16.8475 18.7471 17.0245 18.5186 17.1426 18.259L17.1508 18.2388L17.1536 18.2315L17.1554 18.2278V18.226L17.1563 18.2251C17.1714 18.1853 17.1836 18.1446 17.193 18.1032L19.9247 4.33024C19.9322 4.286 19.9365 4.24127 19.9375 4.19641C19.9375 3.79307 19.7853 3.40899 19.4288 3.17707C19.1226 2.97816 18.7825 2.96899 18.5671 2.98549C18.3361 3.00382 18.1216 3.06066 17.9777 3.10649C17.8973 3.13246 17.8178 3.1612 17.7393 3.19266L17.7293 3.19724L2.40809 9.20691L2.40625 9.20782C2.3543 9.22659 2.30322 9.24769 2.25317 9.27107C2.13163 9.3256 2.01508 9.39063 1.90484 9.46541C1.69675 9.60749 1.21734 9.99799 1.29892 10.6433C1.36309 11.1567 1.71509 11.4729 1.9305 11.6251C2.04784 11.7085 2.15967 11.7681 2.24217 11.8075C2.27884 11.8258 2.35767 11.857 2.39159 11.8717L2.40075 11.8744L5.30567 12.8516ZM18.2655 4.46224H18.2637L18.2398 4.47232L2.90034 10.4902L2.8765 10.4994L2.86734 10.5022C2.83925 10.513 2.81172 10.5253 2.78484 10.5388C2.81047 10.5532 2.83678 10.5664 2.86367 10.5782L5.74384 11.5481C5.79469 11.5669 5.84377 11.5902 5.8905 11.6177L15.4028 6.04899L15.4119 6.04441C15.4491 6.02229 15.487 6.0015 15.5256 5.98207C15.5916 5.94816 15.697 5.89866 15.8162 5.86199C15.8987 5.83632 16.1434 5.76391 16.4074 5.84916C16.5477 5.89291 16.6727 5.97542 16.7681 6.08717C16.8634 6.19892 16.9253 6.33536 16.9464 6.48074C16.9806 6.60793 16.9815 6.74175 16.9492 6.86941C16.885 7.12149 16.709 7.31766 16.5486 7.46799C16.4111 7.59632 14.6273 9.31599 12.8682 11.0137L10.4729 13.3237L10.0467 13.7362L15.4293 17.863C15.502 17.8933 15.5809 17.9059 15.6594 17.8997C15.699 17.8942 15.7362 17.8777 15.7667 17.852C15.8038 17.8206 15.8356 17.7834 15.8611 17.742L15.8629 17.7411L18.5121 4.38249C18.4288 4.40301 18.347 4.42935 18.2673 4.46132L18.2655 4.46224ZM10.5096 15.8234L9.43525 15.0002L9.17492 16.6548L10.5096 15.8234ZM8.44984 13.3667L9.51775 12.3355L11.913 10.0237L12.8049 9.16382L6.82825 12.6627L6.86034 12.7379C7.23728 13.6284 7.61006 14.5206 7.97867 15.4146L8.23809 13.7646C8.26177 13.6116 8.33638 13.472 8.44984 13.3667Z" fill="white"/>
</svg>
