<svg width="24" height="24" viewBox="0 0 24 24" fill="none" xmlns="http://www.w3.org/2000/svg">
<path d="M3 7C3 6.44772 3.44772 6 4 6H20C20.5523 6 21 6.44772 21 7C21 7.55228 20.5523 8 20 8H4C3.44772 8 3 7.55228 3 7Z" fill="white"/>
<path d="M3 13C3 12.4477 3.44772 12 4 12H20C20.5523 12 21 12.4477 21 13C21 13.5523 20.5523 14 20 14H4C3.44772 14 3 13.5523 3 13Z" fill="white"/>
<path d="M3 19C3 18.4477 3.44772 18 4 18H20C20.5523 18 21 18.4477 21 19C21 19.5523 20.5523 20 20 20H4C3.44772 20 3 19.5523 3 19Z" fill="white"/>
</svg>
