<svg width="201" height="42" viewBox="0 0 201 42" fill="none" xmlns="http://www.w3.org/2000/svg">
<g filter="url(#filter0_d_2001_464)">
<path d="M10.1812 15.0459C9.4162 15.0459 8.7073 14.9082 8.0545 14.6328C7.4017 14.3574 6.8305 13.9749 6.3409 13.4853C5.8513 12.9855 5.4688 12.4092 5.1934 11.7564C4.9282 11.1036 4.7956 10.3998 4.7956 9.645C4.7956 8.8902 4.9333 8.1864 5.2087 7.5336C5.4841 6.8808 5.8666 6.3096 6.3562 5.82C6.8458 5.3202 7.417 4.9326 8.0698 4.6572C8.7328 4.3818 9.4468 4.2441 10.2118 4.2441C10.9768 4.2441 11.6857 4.3818 12.3385 4.6572C13.0015 4.9224 13.5727 5.2998 14.0521 5.7894C14.5417 6.279 14.9191 6.8502 15.1843 7.503C15.4597 8.1456 15.5974 8.8494 15.5974 9.6144C15.5974 10.3794 15.4597 11.0934 15.1843 11.7564C14.9089 12.4092 14.5213 12.9855 14.0215 13.4853C13.5319 13.9749 12.9607 14.3574 12.3079 14.6328C11.6551 14.9082 10.9462 15.0459 10.1812 15.0459ZM10.1659 14.4798C10.8595 14.4798 11.497 14.3574 12.0784 14.1126C12.6598 13.8576 13.1698 13.5108 13.6084 13.0722C14.0572 12.6336 14.404 12.1185 14.6488 11.5269C14.8936 10.9251 15.016 10.2876 15.016 9.6144C15.016 8.931 14.8936 8.2986 14.6488 7.7172C14.4142 7.1358 14.0776 6.6258 13.639 6.1872C13.2106 5.7486 12.7006 5.412 12.109 5.1774C11.5276 4.9326 10.8952 4.8102 10.2118 4.8102C9.5182 4.8102 8.8756 4.9326 8.284 5.1774C7.6924 5.4222 7.1773 5.769 6.7387 6.2178C6.3103 6.6564 5.9737 7.1664 5.7289 7.7478C5.4841 8.3292 5.3617 8.9616 5.3617 9.645C5.3617 10.3182 5.4841 10.9506 5.7289 11.5422C5.9737 12.1236 6.3103 12.6387 6.7387 13.0875C7.1773 13.5261 7.6873 13.8678 8.2687 14.1126C8.8603 14.3574 9.4927 14.4798 10.1659 14.4798ZM10.3189 12.8274C9.7069 12.8274 9.1612 12.6948 8.6818 12.4296C8.2024 12.1542 7.825 11.7768 7.5496 11.2974C7.2742 10.818 7.1365 10.2672 7.1365 9.645C7.1365 9.0228 7.2742 8.472 7.5496 7.9926C7.825 7.5132 8.2024 7.1409 8.6818 6.8757C9.1612 6.6003 9.7069 6.4626 10.3189 6.4626C10.8391 6.4626 11.3083 6.5697 11.7265 6.7839C12.1549 6.9879 12.4966 7.2735 12.7516 7.6407L12.0937 8.1303C11.8795 7.8345 11.6194 7.6152 11.3134 7.4724C11.0074 7.3296 10.6708 7.2582 10.3036 7.2582C9.865 7.2582 9.4723 7.3602 9.1255 7.5642C8.7889 7.758 8.5186 8.0334 8.3146 8.3904C8.1106 8.7474 8.0086 9.1656 8.0086 9.645C8.0086 10.1244 8.1106 10.5426 8.3146 10.8996C8.5186 11.2566 8.7889 11.5371 9.1255 11.7411C9.4723 11.9349 9.865 12.0318 10.3036 12.0318C10.6708 12.0318 11.0074 11.9604 11.3134 11.8176C11.6194 11.6748 11.8795 11.4555 12.0937 11.1597L12.7516 11.634C12.4966 12.0114 12.1549 12.3072 11.7265 12.5214C11.3083 12.7254 10.8391 12.8274 10.3189 12.8274ZM20.9725 15V14.2197L25.4248 9.8592C25.8328 9.4614 26.1388 9.1146 26.3428 8.8188C26.5468 8.5128 26.6845 8.2272 26.7559 7.962C26.8273 7.6968 26.863 7.4469 26.863 7.2123C26.863 6.5901 26.6488 6.1005 26.2204 5.7435C25.8022 5.3865 25.18 5.208 24.3538 5.208C23.7214 5.208 23.1604 5.3049 22.6708 5.4987C22.1914 5.6925 21.7783 5.9934 21.4315 6.4014L20.6512 5.7282C21.0694 5.2386 21.6049 4.8612 22.2577 4.596C22.9105 4.3308 23.6398 4.1982 24.4456 4.1982C25.1698 4.1982 25.7971 4.3155 26.3275 4.5501C26.8579 4.7745 27.2659 5.106 27.5515 5.5446C27.8473 5.9832 27.9952 6.4983 27.9952 7.0899C27.9952 7.4367 27.9442 7.7784 27.8422 8.115C27.7504 8.4516 27.577 8.8086 27.322 9.186C27.0772 9.5532 26.7151 9.9714 26.2357 10.4406L22.1506 14.4492L21.8446 14.0208H28.4848V15H20.9725ZM34.1061 15.0918C33.2799 15.0918 32.5455 14.8776 31.9029 14.4492C31.2603 14.0106 30.7554 13.3884 30.3882 12.5826C30.021 11.7666 29.8374 10.7874 29.8374 9.645C29.8374 8.5026 30.021 7.5285 30.3882 6.7227C30.7554 5.9067 31.2603 5.2845 31.9029 4.8561C32.5455 4.4175 33.2799 4.1982 34.1061 4.1982C34.9323 4.1982 35.6667 4.4175 36.3093 4.8561C36.9519 5.2845 37.4568 5.9067 37.824 6.7227C38.2014 7.5285 38.3901 8.5026 38.3901 9.645C38.3901 10.7874 38.2014 11.7666 37.824 12.5826C37.4568 13.3884 36.9519 14.0106 36.3093 14.4492C35.6667 14.8776 34.9323 15.0918 34.1061 15.0918ZM34.1061 14.082C34.7385 14.082 35.2893 13.9137 35.7585 13.5771C36.2277 13.2303 36.5949 12.7305 36.8601 12.0777C37.1253 11.4147 37.2579 10.6038 37.2579 9.645C37.2579 8.6862 37.1253 7.8804 36.8601 7.2276C36.5949 6.5646 36.2277 6.0648 35.7585 5.7282C35.2893 5.3814 34.7385 5.208 34.1061 5.208C33.4941 5.208 32.9484 5.3814 32.469 5.7282C31.9896 6.0648 31.6173 6.5646 31.3521 7.2276C31.0869 7.8804 30.9543 8.6862 30.9543 9.645C30.9543 10.6038 31.0869 11.4147 31.3521 12.0777C31.6173 12.7305 31.9896 13.2303 32.469 13.5771C32.9484 13.9137 33.4941 14.082 34.1061 14.082ZM39.7688 15V14.2197L44.2211 9.8592C44.6291 9.4614 44.9351 9.1146 45.1391 8.8188C45.3431 8.5128 45.4808 8.2272 45.5522 7.962C45.6236 7.6968 45.6593 7.4469 45.6593 7.2123C45.6593 6.5901 45.4451 6.1005 45.0167 5.7435C44.5985 5.3865 43.9763 5.208 43.1501 5.208C42.5177 5.208 41.9567 5.3049 41.4671 5.4987C40.9877 5.6925 40.5746 5.9934 40.2278 6.4014L39.4475 5.7282C39.8657 5.2386 40.4012 4.8612 41.054 4.596C41.7068 4.3308 42.4361 4.1982 43.2419 4.1982C43.9661 4.1982 44.5934 4.3155 45.1238 4.5501C45.6542 4.7745 46.0622 5.106 46.3478 5.5446C46.6436 5.9832 46.7915 6.4983 46.7915 7.0899C46.7915 7.4367 46.7405 7.7784 46.6385 8.115C46.5467 8.4516 46.3733 8.8086 46.1183 9.186C45.8735 9.5532 45.5114 9.9714 45.032 10.4406L40.9469 14.4492L40.6409 14.0208H47.2811V15H39.7688ZM52.0449 15.0918C51.2799 15.0918 50.5506 14.9694 49.857 14.7246C49.1634 14.4696 48.6126 14.133 48.2046 13.7148L48.7401 12.8427C49.0767 13.1997 49.5357 13.4955 50.1171 13.7301C50.7087 13.9647 51.3462 14.082 52.0296 14.082C52.9374 14.082 53.6259 13.8831 54.0951 13.4853C54.5745 13.0773 54.8142 12.5469 54.8142 11.8941C54.8142 11.4351 54.702 11.0424 54.4776 10.716C54.2634 10.3794 53.8962 10.1193 53.376 9.9357C52.8558 9.7521 52.1418 9.6603 51.234 9.6603H48.9543L49.5051 4.29H55.365V5.2692H49.9488L50.5149 4.7337L50.0406 9.2319L49.4745 8.6811H51.4788C52.56 8.6811 53.427 8.8137 54.0798 9.0789C54.7326 9.3441 55.2018 9.7164 55.4874 10.1958C55.7832 10.665 55.9311 11.2158 55.9311 11.8482C55.9311 12.45 55.7883 13.0008 55.5027 13.5006C55.2171 13.9902 54.7887 14.3778 54.2175 14.6634C53.6463 14.949 52.9221 15.0918 52.0449 15.0918ZM69.4582 14.4645V5.2692H64.3327L64.2409 7.8702C64.2103 8.676 64.1593 9.4512 64.0879 10.1958C64.0267 10.9302 63.9247 11.5932 63.7819 12.1848C63.6493 12.7662 63.4657 13.2405 63.2311 13.6077C63.0067 13.9749 62.7109 14.1891 62.3437 14.2503L61.1044 14.0208C61.5124 14.0412 61.849 13.8933 62.1142 13.5771C62.3896 13.2609 62.5987 12.8172 62.7415 12.246C62.8945 11.6748 63.0067 11.0067 63.0781 10.2417C63.1495 9.4767 63.2005 8.6505 63.2311 7.7631L63.3535 4.29H70.5751V14.4645H69.4582ZM60.7066 17.4021L60.7219 14.0208H72.1816V17.4021H71.1259V15H61.7776L61.7623 17.4021H60.7066ZM74.2309 15V6.9675H75.3172V13.3476L80.6875 6.9675H81.6514V15H80.5651V8.6046L75.2101 15H74.2309ZM90.6551 15L87.3503 11.022L88.253 10.4865L91.9403 15H90.6551ZM84.7646 15V6.9675H85.8509V15H84.7646ZM85.5143 11.4198V10.4865H88.1V11.4198H85.5143ZM88.3448 11.0985L87.335 10.9455L90.5327 6.9675H91.7108L88.3448 11.0985ZM96.7369 15.0765C95.9413 15.0765 95.2273 14.9031 94.5949 14.5563C93.9727 14.1993 93.4831 13.7148 93.1261 13.1028C92.7691 12.4806 92.5906 11.7717 92.5906 10.9761C92.5906 10.1703 92.7691 9.4614 93.1261 8.8494C93.4831 8.2374 93.9727 7.758 94.5949 7.4112C95.2273 7.0644 95.9413 6.891 96.7369 6.891C97.4203 6.891 98.0374 7.0236 98.5882 7.2888C99.139 7.554 99.5725 7.9518 99.8887 8.4822L99.0778 9.033C98.8024 8.625 98.4607 8.3241 98.0527 8.1303C97.6447 7.9365 97.201 7.8396 96.7216 7.8396C96.1504 7.8396 95.6353 7.9722 95.1763 8.2374C94.7173 8.4924 94.3552 8.8545 94.09 9.3237C93.8248 9.7929 93.6922 10.3437 93.6922 10.9761C93.6922 11.6085 93.8248 12.1593 94.09 12.6285C94.3552 13.0977 94.7173 13.4649 95.1763 13.7301C95.6353 13.9851 96.1504 14.1126 96.7216 14.1126C97.201 14.1126 97.6447 14.0157 98.0527 13.8219C98.4607 13.6281 98.8024 13.3323 99.0778 12.9345L99.8887 13.4853C99.5725 14.0055 99.139 14.4033 98.5882 14.6787C98.0374 14.9439 97.4203 15.0765 96.7369 15.0765Z" fill="white"/>
</g>
<path d="M5.8054 37.9399V27.2299H9.814C10.7218 27.2299 11.5021 27.3778 12.1549 27.6736C12.8077 27.9592 13.3075 28.3774 13.6543 28.9282C14.0113 29.4688 14.1898 30.1267 14.1898 30.9019C14.1898 31.6567 14.0113 32.3095 13.6543 32.8603C13.3075 33.4009 12.8077 33.8191 12.1549 34.1149C11.5021 34.4107 10.7218 34.5586 9.814 34.5586H6.4327L6.9376 34.0231V37.9399H5.8054ZM6.9376 34.1149L6.4327 33.5641H9.7834C10.8544 33.5641 11.6653 33.3346 12.2161 32.8756C12.7771 32.4064 13.0576 31.7485 13.0576 30.9019C13.0576 30.0451 12.7771 29.3821 12.2161 28.9129C11.6653 28.4437 10.8544 28.2091 9.7834 28.2091H6.4327L6.9376 27.6736V34.1149ZM21.1564 37.9399V36.1651L21.1105 35.8744V32.9062C21.1105 32.2228 20.9167 31.6975 20.5291 31.3303C20.1517 30.9631 19.5856 30.7795 18.8308 30.7795C18.3106 30.7795 17.8159 30.8662 17.3467 31.0396C16.8775 31.213 16.4797 31.4425 16.1533 31.7281L15.6637 30.9172C16.0717 30.5704 16.5613 30.3052 17.1325 30.1216C17.7037 29.9278 18.3055 29.8309 18.9379 29.8309C19.9783 29.8309 20.779 30.091 21.34 30.6112C21.9112 31.1212 22.1968 31.9015 22.1968 32.9521V37.9399H21.1564ZM18.3871 38.0164C17.7853 38.0164 17.26 37.9195 16.8112 37.7257C16.3726 37.5217 16.036 37.2463 15.8014 36.8995C15.5668 36.5425 15.4495 36.1345 15.4495 35.6755C15.4495 35.2573 15.5464 34.8799 15.7402 34.5433C15.9442 34.1965 16.2706 33.9211 16.7194 33.7171C17.1784 33.5029 17.7904 33.3958 18.5554 33.3958H21.3247V34.2067H18.586C17.8108 34.2067 17.2702 34.3444 16.9642 34.6198C16.6684 34.8952 16.5205 35.2369 16.5205 35.6449C16.5205 36.1039 16.699 36.4711 17.056 36.7465C17.413 37.0219 17.9128 37.1596 18.5554 37.1596C19.1674 37.1596 19.6927 37.0219 20.1313 36.7465C20.5801 36.4609 20.9065 36.0529 21.1105 35.5225L21.3553 36.2722C21.1513 36.8026 20.7943 37.2259 20.2843 37.5421C19.7845 37.8583 19.1521 38.0164 18.3871 38.0164ZM28.6995 38.0317C28.0467 38.0317 27.4653 37.9246 26.9553 37.7104C26.4555 37.4962 26.0271 37.1698 25.6701 36.7312C25.3131 36.2926 25.0428 35.752 24.8592 35.1094C24.6756 34.4566 24.5838 33.7018 24.5838 32.845C24.5838 32.08 24.6552 31.4119 24.798 30.8407C24.9408 30.2593 25.1397 29.7595 25.3947 29.3413C25.6497 28.9231 25.9455 28.5712 26.2821 28.2856C26.6289 27.9898 27.0012 27.7552 27.399 27.5818C27.807 27.3982 28.2252 27.2605 28.6536 27.1687L32.2644 26.3272L32.448 27.337L29.0514 28.102C28.8372 28.153 28.5771 28.2244 28.2711 28.3162C27.9753 28.408 27.6693 28.5457 27.3531 28.7293C27.0471 28.9129 26.7615 29.1679 26.4963 29.4943C26.2311 29.8207 26.0169 30.244 25.8537 30.7642C25.7007 31.2742 25.6242 31.9117 25.6242 32.6767C25.6242 32.8399 25.6293 32.9725 25.6395 33.0745C25.6497 33.1663 25.6599 33.2683 25.6701 33.3805C25.6905 33.4825 25.7058 33.6355 25.716 33.8395L25.2417 33.4417C25.3539 32.8195 25.5834 32.2789 25.9302 31.8199C26.277 31.3507 26.7105 30.9886 27.2307 30.7336C27.7611 30.4684 28.3476 30.3358 28.9902 30.3358C29.7348 30.3358 30.3978 30.499 30.9792 30.8254C31.5606 31.1416 32.0145 31.5853 32.3409 32.1565C32.6775 32.7277 32.8458 33.3907 32.8458 34.1455C32.8458 34.8901 32.6724 35.5582 32.3256 36.1498C31.989 36.7414 31.5096 37.2055 30.8874 37.5421C30.2652 37.8685 29.5359 38.0317 28.6995 38.0317ZM28.8219 37.129C29.3931 37.129 29.898 37.0015 30.3366 36.7465C30.7752 36.4813 31.1169 36.1243 31.3617 35.6755C31.6167 35.2267 31.7442 34.7218 31.7442 34.1608C31.7442 33.61 31.6167 33.1204 31.3617 32.692C31.1169 32.2636 30.7752 31.927 30.3366 31.6822C29.898 31.4272 29.388 31.2997 28.8066 31.2997C28.2354 31.2997 27.7305 31.4221 27.2919 31.6669C26.8533 31.9015 26.5065 32.233 26.2515 32.6614C26.0067 33.0898 25.8843 33.5845 25.8843 34.1455C25.8843 34.7065 26.0067 35.2114 26.2515 35.6602C26.5065 36.109 26.8533 36.466 27.2919 36.7312C27.7407 36.9964 28.2507 37.129 28.8219 37.129ZM38.4789 38.0164C37.7037 38.0164 37.005 37.843 36.3828 37.4962C35.7708 37.1392 35.2863 36.6547 34.9293 36.0427C34.5723 35.4205 34.3938 34.7116 34.3938 33.916C34.3938 33.1102 34.5723 32.4013 34.9293 31.7893C35.2863 31.1773 35.7708 30.6979 36.3828 30.3511C36.9948 30.0043 37.6935 29.8309 38.4789 29.8309C39.2745 29.8309 39.9783 30.0043 40.5903 30.3511C41.2125 30.6979 41.697 31.1773 42.0438 31.7893C42.4008 32.4013 42.5793 33.1102 42.5793 33.916C42.5793 34.7116 42.4008 35.4205 42.0438 36.0427C41.697 36.6547 41.2125 37.1392 40.5903 37.4962C39.9681 37.843 39.2643 38.0164 38.4789 38.0164ZM38.4789 37.0525C39.0603 37.0525 39.5754 36.925 40.0242 36.67C40.473 36.4048 40.8249 36.0376 41.0799 35.5684C41.3451 35.089 41.4777 34.5382 41.4777 33.916C41.4777 33.2836 41.3451 32.7328 41.0799 32.2636C40.8249 31.7944 40.473 31.4323 40.0242 31.1773C39.5754 30.9121 39.0654 30.7795 38.4942 30.7795C37.923 30.7795 37.413 30.9121 36.9642 31.1773C36.5154 31.4323 36.1584 31.7944 35.8932 32.2636C35.628 32.7328 35.4954 33.2836 35.4954 33.916C35.4954 34.5382 35.628 35.089 35.8932 35.5684C36.1584 36.0376 36.5154 36.4048 36.9642 36.67C37.413 36.925 37.9179 37.0525 38.4789 37.0525ZM46.1321 37.9399V30.5653L46.4075 30.856H43.0874V29.9074H50.2631V30.856H46.943L47.2184 30.5653V37.9399H46.1321ZM56.8216 37.9399V36.1651L56.7757 35.8744V32.9062C56.7757 32.2228 56.5819 31.6975 56.1943 31.3303C55.8169 30.9631 55.2508 30.7795 54.496 30.7795C53.9758 30.7795 53.4811 30.8662 53.0119 31.0396C52.5427 31.213 52.1449 31.4425 51.8185 31.7281L51.3289 30.9172C51.7369 30.5704 52.2265 30.3052 52.7977 30.1216C53.3689 29.9278 53.9707 29.8309 54.6031 29.8309C55.6435 29.8309 56.4442 30.091 57.0052 30.6112C57.5764 31.1212 57.862 31.9015 57.862 32.9521V37.9399H56.8216ZM54.0523 38.0164C53.4505 38.0164 52.9252 37.9195 52.4764 37.7257C52.0378 37.5217 51.7012 37.2463 51.4666 36.8995C51.232 36.5425 51.1147 36.1345 51.1147 35.6755C51.1147 35.2573 51.2116 34.8799 51.4054 34.5433C51.6094 34.1965 51.9358 33.9211 52.3846 33.7171C52.8436 33.5029 53.4556 33.3958 54.2206 33.3958H56.9899V34.2067H54.2512C53.476 34.2067 52.9354 34.3444 52.6294 34.6198C52.3336 34.8952 52.1857 35.2369 52.1857 35.6449C52.1857 36.1039 52.3642 36.4711 52.7212 36.7465C53.0782 37.0219 53.578 37.1596 54.2206 37.1596C54.8326 37.1596 55.3579 37.0219 55.7965 36.7465C56.2453 36.4609 56.5717 36.0529 56.7757 35.5225L57.0205 36.2722C56.8165 36.8026 56.4595 37.2259 55.9495 37.5421C55.4497 37.8583 54.8173 38.0164 54.0523 38.0164ZM64.1963 38.0164C63.3599 38.0164 62.6255 37.843 61.9931 37.4962C61.3607 37.1392 60.866 36.6547 60.509 36.0427C60.152 35.4205 59.9735 34.7116 59.9735 33.916C59.9735 33.1204 60.1418 32.4166 60.4784 31.8046C60.8252 31.1926 61.2944 30.7132 61.886 30.3664C62.4878 30.0094 63.161 29.8309 63.9056 29.8309C64.6604 29.8309 65.3285 30.0043 65.9099 30.3511C66.5015 30.6877 66.9656 31.1671 67.3022 31.7893C67.6388 32.4013 67.8071 33.1102 67.8071 33.916C67.8071 33.967 67.802 34.0231 67.7918 34.0843C67.7918 34.1353 67.7918 34.1914 67.7918 34.2526H60.7997V33.4417H67.2104L66.782 33.763C66.782 33.1816 66.6545 32.6665 66.3995 32.2177C66.1547 31.7587 65.8181 31.4017 65.3897 31.1467C64.9613 30.8917 64.4666 30.7642 63.9056 30.7642C63.3548 30.7642 62.8601 30.8917 62.4215 31.1467C61.9829 31.4017 61.6412 31.7587 61.3964 32.2177C61.1516 32.6767 61.0292 33.202 61.0292 33.7936V33.9619C61.0292 34.5739 61.1618 35.1145 61.427 35.5837C61.7024 36.0427 62.0798 36.4048 62.5592 36.67C63.0488 36.925 63.6047 37.0525 64.2269 37.0525C64.7165 37.0525 65.1704 36.9658 65.5886 36.7924C66.017 36.619 66.3842 36.3538 66.6902 35.9968L67.3022 36.7006C66.9452 37.129 66.4964 37.4554 65.9558 37.6798C65.4254 37.9042 64.8389 38.0164 64.1963 38.0164ZM71.3831 37.9399V30.5653L71.6585 30.856H68.3384V29.9074H75.5141V30.856H72.194L72.4694 30.5653V37.9399H71.3831ZM81.0891 37.9399V29.9074H82.1754V33.457H87.2397V29.9074H88.326V37.9399H87.2397V34.3903H82.1754V37.9399H81.0891ZM96.4014 37.9399V36.1651L96.3555 35.8744V32.9062C96.3555 32.2228 96.1617 31.6975 95.7741 31.3303C95.3967 30.9631 94.8306 30.7795 94.0758 30.7795C93.5556 30.7795 93.0609 30.8662 92.5917 31.0396C92.1225 31.213 91.7247 31.4425 91.3983 31.7281L90.9087 30.9172C91.3167 30.5704 91.8063 30.3052 92.3775 30.1216C92.9487 29.9278 93.5505 29.8309 94.1829 29.8309C95.2233 29.8309 96.024 30.091 96.585 30.6112C97.1562 31.1212 97.4418 31.9015 97.4418 32.9521V37.9399H96.4014ZM93.6321 38.0164C93.0303 38.0164 92.505 37.9195 92.0562 37.7257C91.6176 37.5217 91.281 37.2463 91.0464 36.8995C90.8118 36.5425 90.6945 36.1345 90.6945 35.6755C90.6945 35.2573 90.7914 34.8799 90.9852 34.5433C91.1892 34.1965 91.5156 33.9211 91.9644 33.7171C92.4234 33.5029 93.0354 33.3958 93.8004 33.3958H96.5697V34.2067H93.831C93.0558 34.2067 92.5152 34.3444 92.2092 34.6198C91.9134 34.8952 91.7655 35.2369 91.7655 35.6449C91.7655 36.1039 91.944 36.4711 92.301 36.7465C92.658 37.0219 93.1578 37.1596 93.8004 37.1596C94.4124 37.1596 94.9377 37.0219 95.3763 36.7465C95.8251 36.4609 96.1515 36.0529 96.3555 35.5225L96.6003 36.2722C96.3963 36.8026 96.0393 37.2259 95.5293 37.5421C95.0295 37.8583 94.3971 38.0164 93.6321 38.0164ZM105.868 37.9399V30.5653L106.143 30.856H102.823V29.9074H109.999V30.856H106.679L106.954 30.5653V37.9399H105.868ZM114.638 38.0164C113.802 38.0164 113.068 37.843 112.435 37.4962C111.803 37.1392 111.308 36.6547 110.951 36.0427C110.594 35.4205 110.416 34.7116 110.416 33.916C110.416 33.1204 110.584 32.4166 110.921 31.8046C111.267 31.1926 111.737 30.7132 112.328 30.3664C112.93 30.0094 113.603 29.8309 114.348 29.8309C115.103 29.8309 115.771 30.0043 116.352 30.3511C116.944 30.6877 117.408 31.1671 117.744 31.7893C118.081 32.4013 118.249 33.1102 118.249 33.916C118.249 33.967 118.244 34.0231 118.234 34.0843C118.234 34.1353 118.234 34.1914 118.234 34.2526H111.242V33.4417H117.653L117.224 33.763C117.224 33.1816 117.097 32.6665 116.842 32.2177C116.597 31.7587 116.26 31.4017 115.832 31.1467C115.403 30.8917 114.909 30.7642 114.348 30.7642C113.797 30.7642 113.302 30.8917 112.864 31.1467C112.425 31.4017 112.083 31.7587 111.839 32.2177C111.594 32.6767 111.471 33.202 111.471 33.7936V33.9619C111.471 34.5739 111.604 35.1145 111.869 35.5837C112.145 36.0427 112.522 36.4048 113.001 36.67C113.491 36.925 114.047 37.0525 114.669 37.0525C115.159 37.0525 115.613 36.9658 116.031 36.7924C116.459 36.619 116.826 36.3538 117.132 35.9968L117.744 36.7006C117.387 37.129 116.939 37.4554 116.398 37.6798C115.868 37.9042 115.281 38.0164 114.638 38.0164ZM120.654 37.9399V29.9074H121.755L125.397 36.0733H124.938L128.64 29.9074H129.65V37.9399H128.656V31.1467L128.855 31.2385L125.397 36.9607H124.907L121.419 31.1773L121.648 31.1314V37.9399H120.654ZM136.184 38.0164C135.348 38.0164 134.613 37.843 133.981 37.4962C133.348 37.1392 132.854 36.6547 132.497 36.0427C132.14 35.4205 131.961 34.7116 131.961 33.916C131.961 33.1204 132.129 32.4166 132.466 31.8046C132.813 31.1926 133.282 30.7132 133.874 30.3664C134.475 30.0094 135.149 29.8309 135.893 29.8309C136.648 29.8309 137.316 30.0043 137.898 30.3511C138.489 30.6877 138.953 31.1671 139.29 31.7893C139.626 32.4013 139.795 33.1102 139.795 33.916C139.795 33.967 139.79 34.0231 139.779 34.0843C139.779 34.1353 139.779 34.1914 139.779 34.2526H132.787V33.4417H139.198L138.77 33.763C138.77 33.1816 138.642 32.6665 138.387 32.2177C138.142 31.7587 137.806 31.4017 137.377 31.1467C136.949 30.8917 136.454 30.7642 135.893 30.7642C135.342 30.7642 134.848 30.8917 134.409 31.1467C133.971 31.4017 133.629 31.7587 133.384 32.2177C133.139 32.6767 133.017 33.202 133.017 33.7936V33.9619C133.017 34.5739 133.149 35.1145 133.415 35.5837C133.69 36.0427 134.067 36.4048 134.547 36.67C135.036 36.925 135.592 37.0525 136.215 37.0525C136.704 37.0525 137.158 36.9658 137.576 36.7924C138.005 36.619 138.372 36.3538 138.678 35.9968L139.29 36.7006C138.933 37.129 138.484 37.4554 137.943 37.6798C137.413 37.9042 136.827 38.0164 136.184 38.0164Z" fill="white"/>
<path d="M146.414 37.9399V27.2299H150.423C151.331 27.2299 152.111 27.3778 152.764 27.6736C153.416 27.9592 153.916 28.3774 154.263 28.9282C154.62 29.4688 154.799 30.1267 154.799 30.9019C154.799 31.6567 154.62 32.3095 154.263 32.8603C153.916 33.4009 153.416 33.8191 152.764 34.1149C152.111 34.4005 151.331 34.5433 150.423 34.5433H147.041L147.546 34.0231V37.9399H146.414ZM153.728 37.9399L150.974 34.0537H152.198L154.967 37.9399H153.728ZM147.546 34.1149L147.041 33.5794H150.392C151.463 33.5794 152.274 33.3448 152.825 32.8756C153.386 32.4064 153.666 31.7485 153.666 30.9019C153.666 30.0451 153.386 29.3821 152.825 28.9129C152.274 28.4437 151.463 28.2091 150.392 28.2091H147.041L147.546 27.6736V34.1149ZM160.653 38.0164C159.817 38.0164 159.082 37.843 158.45 37.4962C157.818 37.1392 157.323 36.6547 156.966 36.0427C156.609 35.4205 156.43 34.7116 156.43 33.916C156.43 33.1204 156.599 32.4166 156.935 31.8046C157.282 31.1926 157.751 30.7132 158.343 30.3664C158.945 30.0094 159.618 29.8309 160.362 29.8309C161.117 29.8309 161.785 30.0043 162.367 30.3511C162.958 30.6877 163.422 31.1671 163.759 31.7893C164.096 32.4013 164.264 33.1102 164.264 33.916C164.264 33.967 164.259 34.0231 164.249 34.0843C164.249 34.1353 164.249 34.1914 164.249 34.2526H157.257V33.4417H163.667L163.239 33.763C163.239 33.1816 163.111 32.6665 162.856 32.2177C162.612 31.7587 162.275 31.4017 161.847 31.1467C161.418 30.8917 160.923 30.7642 160.362 30.7642C159.812 30.7642 159.317 30.8917 158.878 31.1467C158.44 31.4017 158.098 31.7587 157.853 32.2177C157.608 32.6767 157.486 33.202 157.486 33.7936V33.9619C157.486 34.5739 157.619 35.1145 157.884 35.5837C158.159 36.0427 158.537 36.4048 159.016 36.67C159.506 36.925 160.062 37.0525 160.684 37.0525C161.173 37.0525 161.627 36.9658 162.045 36.7924C162.474 36.619 162.841 36.3538 163.147 35.9968L163.759 36.7006C163.402 37.129 162.953 37.4554 162.413 37.6798C161.882 37.9042 161.296 38.0164 160.653 38.0164ZM170.621 38.0164C169.918 38.0164 169.285 37.8583 168.724 37.5421C168.163 37.2157 167.719 36.7465 167.393 36.1345C167.067 35.5225 166.903 34.783 166.903 33.916C166.903 33.0388 167.067 32.2993 167.393 31.6975C167.73 31.0855 168.178 30.6214 168.739 30.3052C169.3 29.989 169.928 29.8309 170.621 29.8309C171.386 29.8309 172.07 30.0043 172.672 30.3511C173.284 30.6877 173.763 31.162 174.11 31.774C174.457 32.386 174.63 33.1 174.63 33.916C174.63 34.7218 174.457 35.4358 174.11 36.058C173.763 36.67 173.284 37.1494 172.672 37.4962C172.07 37.843 171.386 38.0164 170.621 38.0164ZM166.475 37.9399V26.5873H167.561V32.2789L167.408 33.9007L167.515 35.5225V37.9399H166.475ZM170.545 37.0525C171.116 37.0525 171.626 36.925 172.075 36.67C172.524 36.4048 172.881 36.0376 173.146 35.5684C173.411 35.089 173.544 34.5382 173.544 33.916C173.544 33.2836 173.411 32.7328 173.146 32.2636C172.881 31.7944 172.524 31.4323 172.075 31.1773C171.626 30.9121 171.116 30.7795 170.545 30.7795C169.974 30.7795 169.459 30.9121 169 31.1773C168.551 31.4323 168.194 31.7944 167.929 32.2636C167.674 32.7328 167.546 33.2836 167.546 33.916C167.546 34.5382 167.674 35.089 167.929 35.5684C168.194 36.0376 168.551 36.4048 169 36.67C169.459 36.925 169.974 37.0525 170.545 37.0525ZM180.119 38.0164C179.343 38.0164 178.645 37.843 178.022 37.4962C177.41 37.1392 176.926 36.6547 176.569 36.0427C176.212 35.4205 176.033 34.7116 176.033 33.916C176.033 33.1102 176.212 32.4013 176.569 31.7893C176.926 31.1773 177.41 30.6979 178.022 30.3511C178.634 30.0043 179.333 29.8309 180.119 29.8309C180.914 29.8309 181.618 30.0043 182.23 30.3511C182.852 30.6979 183.337 31.1773 183.683 31.7893C184.04 32.4013 184.219 33.1102 184.219 33.916C184.219 34.7116 184.04 35.4205 183.683 36.0427C183.337 36.6547 182.852 37.1392 182.23 37.4962C181.608 37.843 180.904 38.0164 180.119 38.0164ZM180.119 37.0525C180.7 37.0525 181.215 36.925 181.664 36.67C182.113 36.4048 182.465 36.0376 182.72 35.5684C182.985 35.089 183.117 34.5382 183.117 33.916C183.117 33.2836 182.985 32.7328 182.72 32.2636C182.465 31.7944 182.113 31.4323 181.664 31.1773C181.215 30.9121 180.705 30.7795 180.134 30.7795C179.563 30.7795 179.053 30.9121 178.604 31.1773C178.155 31.4323 177.798 31.7944 177.533 32.2636C177.268 32.7328 177.135 33.2836 177.135 33.916C177.135 34.5382 177.268 35.089 177.533 35.5684C177.798 36.0376 178.155 36.4048 178.604 36.67C179.053 36.925 179.558 37.0525 180.119 37.0525ZM189.711 38.0164C188.936 38.0164 188.237 37.843 187.615 37.4962C187.003 37.1392 186.518 36.6547 186.161 36.0427C185.804 35.4205 185.626 34.7116 185.626 33.916C185.626 33.1102 185.804 32.4013 186.161 31.7893C186.518 31.1773 187.003 30.6979 187.615 30.3511C188.227 30.0043 188.926 29.8309 189.711 29.8309C190.507 29.8309 191.21 30.0043 191.822 30.3511C192.445 30.6979 192.929 31.1773 193.276 31.7893C193.633 32.4013 193.811 33.1102 193.811 33.916C193.811 34.7116 193.633 35.4205 193.276 36.0427C192.929 36.6547 192.445 37.1392 191.822 37.4962C191.2 37.843 190.496 38.0164 189.711 38.0164ZM189.711 37.0525C190.292 37.0525 190.807 36.925 191.256 36.67C191.705 36.4048 192.057 36.0376 192.312 35.5684C192.577 35.089 192.71 34.5382 192.71 33.916C192.71 33.2836 192.577 32.7328 192.312 32.2636C192.057 31.7944 191.705 31.4323 191.256 31.1773C190.807 30.9121 190.297 30.7795 189.726 30.7795C189.155 30.7795 188.645 30.9121 188.196 31.1773C187.747 31.4323 187.39 31.7944 187.125 32.2636C186.86 32.7328 186.727 33.2836 186.727 33.916C186.727 34.5382 186.86 35.089 187.125 35.5684C187.39 36.0376 187.747 36.4048 188.196 36.67C188.645 36.925 189.15 37.0525 189.711 37.0525ZM198.569 38.0164C197.814 38.0164 197.233 37.8124 196.825 37.4044C196.417 36.9964 196.213 36.4201 196.213 35.6755V28.1326H197.299V35.6143C197.299 36.0835 197.416 36.4456 197.651 36.7006C197.896 36.9556 198.243 37.0831 198.691 37.0831C199.171 37.0831 199.569 36.9454 199.885 36.67L200.267 37.4503C200.053 37.6441 199.793 37.7869 199.487 37.8787C199.191 37.9705 198.885 38.0164 198.569 38.0164ZM194.775 30.8101V29.9074H199.747V30.8101H194.775Z" fill="white"/>
<path d="M144.67 39.8524H200.726V40.6174H144.67V39.8524Z" fill="white"/>
<defs>
<filter id="filter0_d_2001_464" x="0.795654" y="4.19824" width="103.093" height="21.2041" filterUnits="userSpaceOnUse" color-interpolation-filters="sRGB">
<feFlood flood-opacity="0" result="BackgroundImageFix"/>
<feColorMatrix in="SourceAlpha" type="matrix" values="0 0 0 0 0 0 0 0 0 0 0 0 0 0 0 0 0 0 127 0" result="hardAlpha"/>
<feOffset dy="4"/>
<feGaussianBlur stdDeviation="2"/>
<feComposite in2="hardAlpha" operator="out"/>
<feColorMatrix type="matrix" values="0 0 0 0 0 0 0 0 0 0 0 0 0 0 0 0 0 0 0.25 0"/>
<feBlend mode="normal" in2="BackgroundImageFix" result="effect1_dropShadow_2001_464"/>
<feBlend mode="normal" in="SourceGraphic" in2="effect1_dropShadow_2001_464" result="shape"/>
</filter>
</defs>
</svg>
