<svg width="25" height="24" viewBox="0 0 25 24" fill="none" xmlns="http://www.w3.org/2000/svg">
<path d="M12.5 4.36693C11.175 3.27975 9.74521 2.71991 8.22945 2.71991C5.06517 2.71991 2.5 5.28506 2.5 8.44934C2.5 12.7785 5.69725 16.9814 11.9484 21.1143L12.4998 21.4789L13.0513 21.1143C19.3026 16.9814 22.5 12.7785 22.5 8.44934C22.5 5.28505 19.9349 2.71991 16.7706 2.71991C15.2548 2.71991 13.825 3.27975 12.5 4.36693ZM4.5 8.44934C4.5 6.38963 6.16973 4.71991 8.22945 4.71991C9.45344 4.71991 10.632 5.27022 11.796 6.42424L12.5 7.12225L13.2041 6.42423C14.3681 5.27022 15.5466 4.71991 16.7706 4.71991C18.8303 4.71991 20.5 6.38962 20.5 8.44934C20.5 11.8468 17.8766 15.4058 12.4999 19.0755C7.12334 15.4058 4.5 11.8468 4.5 8.44934Z" fill="#2B86D7"/>
</svg>
