<svg width="20" height="20" viewBox="0 0 20 20" fill="none" xmlns="http://www.w3.org/2000/svg">
<g clip-path="url(#clip0_2001_519)">
<path d="M18.3333 9.99984C18.3333 14.6023 14.6025 18.3332 9.99999 18.3332C8.53711 18.3352 7.09969 17.9505 5.83333 17.2182L1.66666 17.9165L2.35999 13.3332C1.90195 12.2816 1.66591 11.1468 1.66666 9.99984C1.66666 5.39734 5.39749 1.6665 9.99999 1.6665C14.6025 1.6665 18.3333 5.39734 18.3333 9.99984Z" stroke="white" stroke-width="1.5" stroke-linecap="round" stroke-linejoin="round"/>
<path d="M10.8 11.5563L12.5333 11.218L14.1666 11.8455V13.3647C14.1666 13.8705 13.7316 14.2563 13.2416 14.148C11.9725 13.8697 9.66665 13.1697 8.06498 11.5563C6.53998 10.0205 6.01915 7.88134 5.84165 6.70051C5.77081 6.22801 6.14498 5.83301 6.61915 5.83301H8.19748L8.80998 7.47384L8.48581 9.22467" stroke="white" stroke-width="1.5" stroke-linecap="round" stroke-linejoin="round"/>
</g>
<defs>
<clipPath id="clip0_2001_519">
<rect width="20" height="20" fill="white"/>
</clipPath>
</defs>
</svg>
